<?xml version="1.0" encoding="utf-8"?>
<!-- Generator: Adobe Illustrator 19.0.0, SVG Export Plug-In . SVG Version: 6.00 Build 0)  -->
<svg version="1.1" baseProfile="basic" id="Layer_1"
	 xmlns="http://www.w3.org/2000/svg" xmlns:xlink="http://www.w3.org/1999/xlink" x="0px" y="0px" viewBox="0 0 74.2 64.1"
	 xml:space="preserve">
<style type="text/css">
	.st0{fill:#FFFFFF;}
</style>
<g id="XMLID_224_">
	<g id="XMLID_1842_">
		<path class="st0" d="M2.7,45.8c-0.2,0.5-0.1,1,0.2,1.4c0.2,0.2,0.5,0.3,0.8,0.3c0.2,0,0.4,0,0.5-0.1l7.9-4
			c3.8,2.7,8.3,4.1,12.9,4.1c0.9,0,1.8-0.1,2.7-0.2C31.3,56,39.6,61.8,49,61.8c4.7,0,9.1-1.4,12.9-4.1l7.9,4
			c0.2,0.1,0.4,0.1,0.5,0.1c0.3,0,0.6-0.1,0.8-0.3c0.4-0.4,0.5-0.9,0.2-1.4l-4-7.9c2.7-3.8,4.1-8.3,4.1-12.9
			c0-12.5-10.1-22.6-22.6-22.6h-2.8c-3.3-8.4-11.5-14.3-21-14.3C12.7,2.3,2.6,12.4,2.6,24.9c0,4.7,1.4,9.1,4.1,12.9L2.7,45.8z
			 M49,18.9c11.2,0,20.2,9.1,20.2,20.2c0,4.4-1.4,8.6-4.1,12.1c-0.3,0.4-0.3,0.8-0.1,1.2l2.7,5.4l-5.4-2.7c-0.4-0.2-0.9-0.2-1.2,0.1
			c-3.5,2.7-7.7,4.1-12.1,4.1c-8.2,0-15.6-5-18.7-12.5c10-2.3,17.5-11.3,17.5-22c0-2.1-0.3-4.1-0.8-6H49z M5,24.9
			C5,13.7,14,4.7,25.2,4.7s20.2,9.1,20.2,20.2s-9.1,20.2-20.2,20.2c-4.4,0-8.6-1.4-12.1-4.1c-0.2-0.2-0.5-0.2-0.7-0.2
			c-0.2,0-0.4,0-0.5,0.1l-5.4,2.7l2.7-5.4C9.3,37.9,9.3,37.4,9,37C6.4,33.5,5,29.3,5,24.9z"/>
		<path class="st0" d="M70.4,62.1c-0.2,0-0.5-0.1-0.7-0.2L62,58.1c-3.8,2.6-8.3,4-13,4c-9.3,0-17.8-5.8-21.3-14.4
			c-0.9,0.1-1.7,0.2-2.5,0.2c-4.7,0-9.1-1.4-13-4l-7.8,3.9c-0.6,0.3-1.3,0.2-1.8-0.3c-0.5-0.5-0.6-1.2-0.3-1.8l3.9-7.8
			c-2.6-3.8-4-8.3-4-13c0-12.7,10.3-23,23-23c9.4,0,17.7,5.6,21.2,14.3H49c12.7,0,23,10.3,23,23c0,4.7-1.4,9.1-4,13l3.9,7.8
			c0.3,0.6,0.2,1.3-0.3,1.8C71.2,62,70.8,62.1,70.4,62.1z M61.9,57.3l8.1,4.1c0.3,0.2,0.7,0.1,1-0.2c0.3-0.3,0.3-0.7,0.2-1l-4.1-8.1
			l0.1-0.2c2.6-3.8,4-8.2,4-12.8c0-12.3-10-22.3-22.3-22.3h-3l-0.1-0.2C42.5,8.1,34.4,2.6,25.2,2.6c-12.3,0-22.3,10-22.3,22.3
			c0,4.6,1.4,9,4,12.7l0.1,0.2L3,45.9c-0.2,0.3-0.1,0.7,0.2,1c0.3,0.3,0.7,0.3,1,0.2l8.1-4.1l0.2,0.1c3.8,2.6,8.2,4,12.8,4
			c0.8,0,1.7-0.1,2.7-0.2l0.3,0l0.1,0.2c3.3,8.5,11.6,14.2,20.8,14.2c4.6,0,9-1.4,12.8-4L61.9,57.3z M49,59.8c-8.4,0-15.8-5-19-12.7
			l-0.2-0.4l0.4-0.1c10.1-2.4,17.2-11.3,17.2-21.7c0-1.9-0.3-3.9-0.8-5.9l-0.1-0.4H49c11.3,0,20.6,9.2,20.6,20.6
			c0,4.5-1.4,8.7-4.1,12.3c-0.2,0.3-0.2,0.6-0.1,0.9l3.2,6.3l-6.3-3.2c-0.3-0.1-0.6-0.1-0.9,0.1C57.7,58.3,53.5,59.8,49,59.8z
			 M30.8,47.1C34,54.4,41.1,59.1,49,59.1c4.3,0,8.4-1.4,11.9-4c0.5-0.3,1.1-0.4,1.6-0.1l4.5,2.2l-2.2-4.5c-0.3-0.5-0.2-1.1,0.1-1.6
			c2.6-3.5,4-7.6,4-11.9c0-11-8.9-19.9-19.9-19.9h-1.6c0.5,1.9,0.7,3.8,0.7,5.6C48.2,35.5,41,44.6,30.8,47.1z M25.2,45.5
			c-4.5,0-8.7-1.4-12.3-4.1c-0.2-0.2-0.6-0.2-0.9-0.1l-6.3,3.2l3.2-6.3c0.1-0.3,0.1-0.6-0.1-0.9C6,33.6,4.6,29.4,4.6,24.9
			c0-11.3,9.2-20.6,20.6-20.6s20.6,9.2,20.6,20.6S36.6,45.5,25.2,45.5z M12.4,40.5c0.3,0,0.7,0.1,0.9,0.3c3.5,2.6,7.6,4,11.9,4
			c11,0,19.9-8.9,19.9-19.9S36.2,5,25.2,5S5.3,13.9,5.3,24.9c0,4.3,1.4,8.4,4,11.9c0.4,0.5,0.4,1.1,0.1,1.6l-2.2,4.5l4.5-2.2
			C11.9,40.6,12.1,40.5,12.4,40.5z"/>
	</g>
	<g id="XMLID_913_">
		<path class="st0" d="M14.7,30.9c1.8,0,3.3-1.5,3.3-3.3s-1.5-3.3-3.3-3.3s-3.3,1.5-3.3,3.3S12.9,30.9,14.7,30.9z M14.7,26.5
			c0.6,0,1.1,0.5,1.1,1.1s-0.5,1.1-1.1,1.1s-1.1-0.5-1.1-1.1S14.1,26.5,14.7,26.5z"/>
	</g>
	<g id="XMLID_691_">
		<path class="st0" d="M23.5,30.9c1.8,0,3.3-1.5,3.3-3.3s-1.5-3.3-3.3-3.3s-3.3,1.5-3.3,3.3S21.7,30.9,23.5,30.9z M23.5,26.5
			c0.6,0,1.1,0.5,1.1,1.1s-0.5,1.1-1.1,1.1s-1.1-0.5-1.1-1.1S22.9,26.5,23.5,26.5z"/>
	</g>
	<g id="XMLID_466_">
		<path class="st0" d="M32.4,30.9c1.8,0,3.3-1.5,3.3-3.3s-1.5-3.3-3.3-3.3c-1.8,0-3.3,1.5-3.3,3.3S30.5,30.9,32.4,30.9z M32.4,26.5
			c0.6,0,1.1,0.5,1.1,1.1s-0.5,1.1-1.1,1.1c-0.6,0-1.1-0.5-1.1-1.1S31.8,26.5,32.4,26.5z"/>
	</g>
	<g id="XMLID_365_">
		<path class="st0" d="M42.3,40.8c0,1.8,1.5,3.3,3.3,3.3c1.8,0,3.3-1.5,3.3-3.3c0-1.8-1.5-3.3-3.3-3.3C43.8,37.5,42.3,39,42.3,40.8z
			 M45.6,39.7c0.6,0,1.1,0.5,1.1,1.1c0,0.6-0.5,1.1-1.1,1.1c-0.6,0-1.1-0.5-1.1-1.1C44.5,40.2,45,39.7,45.6,39.7z"/>
	</g>
	<g id="XMLID_297_">
		<path class="st0" d="M54.4,44.2c1.8,0,3.3-1.5,3.3-3.3c0-1.8-1.5-3.3-3.3-3.3c-1.8,0-3.3,1.5-3.3,3.3
			C51.1,42.7,52.6,44.2,54.4,44.2z M54.4,39.7c0.6,0,1.1,0.5,1.1,1.1c0,0.6-0.5,1.1-1.1,1.1c-0.6,0-1.1-0.5-1.1-1.1
			C53.3,40.2,53.8,39.7,54.4,39.7z"/>
	</g>
</g>
</svg>
