<?xml version="1.0" encoding="utf-8"?>
<!-- Generator: Adobe Illustrator 19.0.0, SVG Export Plug-In . SVG Version: 6.00 Build 0)  -->
<svg version="1.1" baseProfile="basic" id="Layer_1"
	 xmlns="http://www.w3.org/2000/svg" xmlns:xlink="http://www.w3.org/1999/xlink" x="0px" y="0px" viewBox="0 0 81.7 62.2"
	 xml:space="preserve">
<style type="text/css">
	.st0{fill:#FFFFFF;}
</style>
<g id="XMLID_8148_">
	<path id="XMLID_8212_" class="st0" d="M13.1,40.3l-0.2-1.7c0.6-0.6,1.2-1.3,1.5-2.1c1.3-3-0.2-6.5-3.2-7.7c-1.5-0.6-3.1-0.6-4.5,0
		c-1.5,0.6-2.6,1.7-3.2,3.2c-1.1,2.7-0.1,5.8,2.4,7.3l0.3,1.9c0.1,0.6,0.4,1.1,0.9,1.5c0.4,0.3,0.9,0.5,1.4,0.5c0.1,0,0.2,0,0.3,0
		l2.5-0.3C12.4,42.7,13.3,41.5,13.1,40.3z M5.7,32.9C6,32,6.7,31.3,7.6,30.9C8,30.8,8.5,30.7,9,30.7c0.5,0,0.9,0.1,1.4,0.3
		c1.8,0.8,2.7,2.9,1.9,4.7v0c-0.4,0.9-1.1,1.6-1.9,1.9c-0.9,0.4-1.9,0.4-2.7,0C5.8,36.8,4.9,34.7,5.7,32.9z M8.5,40.9l-0.1-0.7
		c0.2,0,0.4,0,0.6,0c0.6,0,1.2-0.1,1.7-0.3l0.1,0.7L8.5,40.9z"/>
	<path id="XMLID_8149_" class="st0" d="M77.1,24.9l-4.6-3.3c-1.2-0.9-2.9-0.9-4.1,0l-12.5,8.6l-5.6-1.4l6.5-2.5
		c0.9-0.3,1.6-1.1,2-1.9l6-14.1l1.6,0.5c0.9,0.3,1.9,0.2,2.7-0.3c0.8-0.5,1.5-1.2,1.7-2.1c0.6-1.9-0.5-3.9-2.4-4.5l-4.6-1.4
		c-1.8-0.5-3.6,0.4-4.3,2L57,10.3c-0.2,0.6,0,1.3,0.6,1.5c0.6,0.2,1.3,0,1.5-0.6l2.4-5.8c0.3-0.6,0.9-0.9,1.5-0.7l4.6,1.4
		c0.7,0.2,1.1,0.9,0.9,1.6C68.5,8,68.3,8.3,68,8.4c-0.3,0.2-0.6,0.2-1,0.1l-2.6-0.8c-0.6-0.2-1.2,0.1-1.4,0.7l-6.4,15
		c-0.1,0.3-0.4,0.6-0.7,0.7L46.1,28l0,0l-7.2,2.8c-0.1,0-0.2,0.1-0.3,0.1l-10.2,1.4c-0.5,0.1-0.9,0.5-1,1c-0.1,0.5,0.2,1,0.7,1.2
		l5.4,2.2c0.2,0.1,0.3,0.2,0.5,0.3l8.6,9.4c0.5,0.5,0.4,1.3-0.1,1.8c-0.2,0.2-0.4,0.3-0.7,0.3c-0.4,0.1-0.8-0.1-1.1-0.4l-8.2-9
		c-0.1-0.1-0.3-0.2-0.4-0.3l-13.4-5.4c-0.5-0.2-0.9-0.8-0.8-1.3c0.1-0.6,0.5-1,1.1-1.1l5.6-0.7l4.8-0.6l0,0l6.8-0.9
		c0.1,0,0.2,0,0.3,0l1.6-0.2c0.1,0,0.2,0,0.3-0.1l15.9-6.2c0.3-0.1,0.5-0.3,0.6-0.6l2.2-5.3c0.2-0.6,0-1.3-0.6-1.5
		c-0.6-0.2-1.3,0-1.5,0.6l-2.1,4.9l-12.1,4.7c0.3-0.8,0.4-1.8,0.3-2.7c-0.2-1.5-1-2.9-2.2-3.8c-1.2-0.9-2.8-1.4-4.3-1.1
		c-0.6,0.1-1.1,0.7-1,1.3c0.1,0.6,0.7,1.1,1.3,1c0.9-0.1,1.8,0.1,2.6,0.7c0.7,0.6,1.2,1.4,1.3,2.3c0.2,1.8-1,3.5-2.8,3.9l-5.9,0.8
		l-0.9-6.9c0.6-0.1,1.1-0.7,1-1.3c-0.1-0.6-0.7-1.1-1.3-1l-1.1,0.1l0,0l-6.7,0.9h0l-4.6,0.6c-3.2,0.4-5.4,3.3-5,6.5
		c0.2,1.5,1,2.9,2.2,3.8c0.6,0.5,1.3,0.8,2,1c-0.1,0.3-0.2,0.5-0.2,0.8c0,0.3,0,0.6,0,0.9c0,0,0,0,0,0l1.7,12.6l-4.6,9.4
		c-0.9,1.8-0.1,3.9,1.6,4.8c0.5,0.2,1,0.4,1.6,0.4c0.2,0,0.3,0,0.5,0c1.2-0.2,2.2-0.9,2.8-2l1.2-2.5c0.3-0.6,0-1.3-0.5-1.6
		c-0.6-0.3-1.3,0-1.6,0.5L17,56.8c-0.2,0.4-0.6,0.6-1,0.7c-0.2,0-0.5,0-0.7-0.1c-0.6-0.3-0.9-1.1-0.6-1.7l4.8-9.7
		c0.1-0.2,0.1-0.4,0.1-0.7l-1.3-9.5l2.7,1.1l1.2,8.8c0,0.3,0,0.5-0.1,0.7l-1.6,3.3c-0.3,0.6,0,1.3,0.5,1.6c0.2,0.1,0.3,0.1,0.5,0.1
		c0.4,0,0.8-0.2,1-0.6l1.6-3.3c0.3-0.6,0.4-1.4,0.3-2.1l-1-7.5l7.4,3l8,8.8c0.7,0.7,1.6,1.2,2.6,1.2c0.2,0,0.3,0,0.5,0
		c0.7-0.1,1.4-0.4,1.9-0.9c1.5-1.3,1.6-3.6,0.2-5.1l-8.6-9.4c-0.4-0.4-0.8-0.7-1.3-0.9L33,34l5.2-0.7c0.1,0,0.1,0,0.2,0.1l17.4,4.2
		c0.3,0.1,0.6,0.1,0.8,0.1c0.2,0,0.3,0,0.5,0c0.6-0.1,1.1-0.3,1.6-0.6L70.4,29l2.5,1.8c0.8,0.6,1.7,0.8,2.7,0.6
		c0.9-0.2,1.8-0.7,2.3-1.5C79.1,28.3,78.7,26.1,77.1,24.9z M23.4,28l-0.9-6.9l4.4-0.6l0.9,6.9L23.4,28z M13.8,25.8
		c-0.3-1.9,1.1-3.7,3-3.9l3.4-0.5l0.9,6.9l-2.3,0.3l-1.1,0.1c-0.9,0.1-1.8-0.1-2.6-0.7C14.4,27.5,13.9,26.7,13.8,25.8z M76,28.6
		c-0.2,0.3-0.5,0.5-0.8,0.5c-0.3,0.1-0.7,0-0.9-0.2l-3.2-2.3c-0.4-0.3-0.9-0.3-1.3,0l-12.4,8.6c-0.2,0.1-0.4,0.2-0.6,0.2
		c-0.2,0-0.3,0-0.5,0l-13.9-3.4l4.1-1.6l9.3,2.3c0.3,0.1,0.7,0,0.9-0.2l12.9-8.9c0.4-0.3,1-0.3,1.5,0l4.6,3.3
		C76.3,27.2,76.5,28,76,28.6z"/>
</g>
</svg>
