<?xml version="1.0" encoding="utf-8"?>
<!-- Generator: Adobe Illustrator 19.0.0, SVG Export Plug-In . SVG Version: 6.00 Build 0)  -->
<svg version="1.1" baseProfile="basic" id="Layer_1"
	 xmlns="http://www.w3.org/2000/svg" xmlns:xlink="http://www.w3.org/1999/xlink" x="0px" y="0px" viewBox="0 0 63.8 63.8"
	 xml:space="preserve">
<style type="text/css">
	.st0{fill:#FFFFFF;}
</style>
<g id="XMLID_334_">
	<path id="XMLID_337_" class="st0" d="M31.9,29c4.1,0,7.4-3.3,7.4-7.4c0-4.1-3.3-7.4-7.4-7.4c-4.1,0-7.4,3.3-7.4,7.4
		C24.5,25.7,27.8,29,31.9,29z M28.1,21.6c0-2.1,1.7-3.8,3.8-3.8c2.1,0,3.8,1.7,3.8,3.8s-1.7,3.8-3.8,3.8
		C29.8,25.4,28.1,23.7,28.1,21.6z"/>
	<path id="XMLID_356_" class="st0" d="M31.7,56.6l15.1-21.7c5.6-7.5,4.8-19.8-1.7-26.4C41.5,4.9,36.8,3,31.7,3c-5,0-9.7,2-13.3,5.5
		c-6.6,6.6-7.4,18.9-1.8,26.3L31.7,56.6z M21,11c2.9-2.9,6.7-4.5,10.8-4.5c4.1,0,7.9,1.6,10.8,4.5c5.4,5.4,6,15.5,1.4,21.8
		L31.7,50.3L19.6,32.7C14.9,26.5,15.6,16.4,21,11z"/>
	<path id="XMLID_357_" class="st0" d="M43.4,43.2c-0.5-0.1-0.9,0.1-1.3,0.4c-0.4,0.3-0.6,0.7-0.7,1.2c-0.1,1,0.6,1.9,1.6,2
		c9.9,1.2,14.3,4.3,14.3,5.2c0,1.5-8.9,5.2-25.4,5.2c-16.5,0-25.4-3.7-25.4-5.2c0-1,4.4-4.1,14.3-5.2c1-0.1,1.7-1,1.6-2
		c-0.1-1-1-1.7-2-1.6C10,44.5,3,48,3,52c0,5.3,11.6,8.8,29,8.8c17.3,0,29-3.5,29-8.8C60.9,48,53.8,44.5,43.4,43.2z"/>
</g>
</svg>
