<?xml version="1.0" encoding="utf-8"?>
<!-- Generator: Adobe Illustrator 19.0.0, SVG Export Plug-In . SVG Version: 6.00 Build 0)  -->
<svg version="1.1" baseProfile="basic" id="Layer_1"
	 xmlns="http://www.w3.org/2000/svg" xmlns:xlink="http://www.w3.org/1999/xlink" x="0px" y="0px" viewBox="0 0 48.3 63"
	 xml:space="preserve">
<style type="text/css">
	.st0{fill:#FFFFFF;}
	.st1{opacity:0.9;}
	.st2{fill:url(#XMLID_132_);}
</style>
<g id="XMLID_1054_">
	<g id="XMLID_1175_">
		<path id="XMLID_212_" class="st0" d="M25.7,60.2c-4,0-7.3-3.3-7.3-7.3V49c0-0.3,0-0.5,0-0.8c0.1-0.7,0.6-1.2,1.3-1.2h11.9
			c0.7,0,1.2,0.5,1.3,1.2c0,0.3,0,0.5,0,0.8v3.9C33,56.9,29.7,60.2,25.7,60.2z M21,49.7v3.2c0,2.6,2.1,4.7,4.7,4.7s4.7-2.1,4.7-4.7
			v-3.2H21z"/>
		<path id="XMLID_211_" class="st0" d="M29.2,18.7c0,0-0.1,0-0.1,0c-0.7-0.1-1.2-0.7-1.1-1.4c0-0.1,0-0.2,0-0.2v-2.3
			c0-1.2-1-2.2-2.2-2.2s-2.2,1-2.2,2.2v2.3c0,0.1,0,0.2,0,0.2c0.1,0.7-0.4,1.3-1.1,1.4c-0.7,0.1-1.3-0.4-1.4-1.1c0-0.2,0-0.3,0-0.5
			v-2.3c0-2.7,2.2-4.8,4.8-4.8s4.8,2.2,4.8,4.8v2.3c0,0.2,0,0.3,0,0.5C30.4,18.2,29.9,18.7,29.2,18.7z"/>
		<path id="XMLID_210_" class="st0" d="M39.3,38.7c-0.7,0-1.3-0.6-1.3-1.3v-6.3c0-6.8-5.5-12.3-12.3-12.3s-12.3,5.5-12.3,12.3v6.3
			c0,0.7-0.6,1.3-1.3,1.3s-1.3-0.6-1.3-1.3v-6.3c0-8.2,6.7-14.9,14.9-14.9S40.6,23,40.6,31.2v6.3C40.6,38.1,40,38.7,39.3,38.7z"/>
		<path id="XMLID_142_" class="st0" d="M43,49.7H8.5c-1.7,0-3.2-1.4-3.2-3.2v-2.6c0-1.7,1.4-3.2,3.2-3.2H43c1.7,0,3.2,1.4,3.2,3.2
			v2.6C46.1,48.2,44.7,49.7,43,49.7z M9.8,47.1h31.9c1,0,1.9-0.8,1.9-1.9v0c0-1-0.8-1.9-1.9-1.9H9.8c-1,0-1.9,0.8-1.9,1.9v0
			C7.9,46.3,8.7,47.1,9.8,47.1z"/>
	</g>
	<g id="XMLID_1166_">
		<circle id="XMLID_1173_" class="st0" cx="18.1" cy="18.7" r="15.9"/>
	</g>
	<g id="XMLID_1061_" class="st1">
		<linearGradient id="XMLID_132_" gradientUnits="userSpaceOnUse" x1="12.1049" y1="18.7288" x2="24.0228" y2="18.7288">
			<stop  offset="0" style="stop-color:#99D5F1"/>
			<stop  offset="1" style="stop-color:#224D9B"/>
		</linearGradient>
		<path id="XMLID_1071_" class="st2" d="M12.6,28.6c-0.1,0-0.3-0.1-0.4-0.2c-0.1-0.1-0.2-0.2-0.2-0.4v-2c0-0.1,0.1-0.3,0.2-0.3
			c0.1-0.1,0.2-0.1,0.4-0.1h3.6V12.5l-3.5,1.1c-0.1,0-0.2,0.1-0.3,0.1c-0.2,0-0.3-0.1-0.3-0.3v-2.5c0-0.1,0.1-0.2,0.2-0.3L17,8.9
			c0.1,0,0.2-0.1,0.3-0.1c0.1,0,0.2,0,0.3,0h1.8c0.3,0,0.5,0.2,0.5,0.5v16.3h3.6c0.1,0,0.3,0,0.4,0.1c0.1,0.1,0.2,0.2,0.2,0.3v2
			c0,0.1-0.1,0.3-0.2,0.4c-0.1,0.1-0.2,0.2-0.4,0.2H12.6z"/>
	</g>
</g>
</svg>
