<?xml version="1.0" encoding="utf-8"?>
<!-- Generator: Adobe Illustrator 19.0.0, SVG Export Plug-In . SVG Version: 6.00 Build 0)  -->
<svg version="1.1" baseProfile="basic" id="Layer_1"
	 xmlns="http://www.w3.org/2000/svg" xmlns:xlink="http://www.w3.org/1999/xlink" x="0px" y="0px" viewBox="0 0 78.8 55.9"
	 xml:space="preserve">
<style type="text/css">
	.st0{fill:#FFFFFF;}
</style>
<g id="XMLID_4109_">
	<path id="XMLID_4330_" class="st0" d="M43,29.4c-0.2,0-0.5,0-0.7,0c-2.9-5.1-8.3-8.2-14.2-8.2c-7.1,0-13.4,4.6-15.6,11.3
		c-5.5,0.4-10,5.2-10,10.8c0,6,4.9,10.8,10.8,10.8H43c6.8,0,12.4-5.6,12.4-12.4C55.4,34.9,49.8,29.4,43,29.4z M43,50.9H13.3
		c-4.2,0-7.6-3.4-7.6-7.6c0-4.2,3.4-7.6,7.6-7.6l0.4,0c0.8,0,1.4-0.5,1.5-1.2c1.5-5.9,6.7-10.1,12.8-10.1c4.4,0,8.4,2.1,10.8,5.7
		c-2,0.7-3.8,1.9-5.2,3.5c-0.3,0.3-0.4,0.7-0.4,1.2c0,0.4,0.2,0.8,0.5,1.1c0.3,0.3,0.7,0.4,1.2,0.4c0.4,0,0.8-0.2,1.1-0.5
		c1.5-1.7,3.4-2.7,5.6-3c0.2,0,0.4,0,0.5-0.1c0.3,0,0.5,0,0.8,0c5,0,9.2,4.1,9.2,9.2C52.2,46.8,48,50.9,43,50.9z"/>
	<path id="XMLID_4119_" class="st0" d="M50,13.5c-4.2,0-8.2,1.8-11,5c-0.3,0.3-0.4,0.7-0.4,1.2c0,0.4,0.2,0.8,0.6,1.1
		c0.7,0.6,1.7,0.5,2.3-0.2c2.2-2.5,5.3-3.9,8.6-3.9c6.3,0,11.3,5.1,11.3,11.3c0,3-1.2,5.9-3.3,8c-0.3,0.3-0.5,0.7-0.5,1.1
		c0,0.4,0.2,0.8,0.5,1.1c0.3,0.3,0.7,0.5,1.1,0.5c0.4,0,0.8-0.2,1.1-0.5c2.8-2.8,4.3-6.4,4.3-10.3C64.6,20,58.1,13.5,50,13.5z"/>
	<path id="XMLID_4118_" class="st0" d="M50,10.8c0.9,0,1.6-0.7,1.6-1.6V3.3c0-0.9-0.7-1.6-1.6-1.6c-0.9,0-1.6,0.7-1.6,1.6v5.8
		C48.4,10.1,49.1,10.8,50,10.8z"/>
	<path id="XMLID_4117_" class="st0" d="M74.7,26.5h-5.8c-0.9,0-1.6,0.7-1.6,1.6c0,0.9,0.7,1.6,1.6,1.6h5.8c0.9,0,1.6-0.7,1.6-1.6
		C76.4,27.2,75.6,26.5,74.7,26.5z"/>
	<path id="XMLID_4116_" class="st0" d="M63.4,16.3c0.4,0,0.8-0.2,1.1-0.5l4.1-4.1c0.3-0.3,0.5-0.7,0.5-1.1c0-0.4-0.2-0.8-0.5-1.1
		C68.3,9.2,67.9,9,67.5,9h0c-0.4,0-0.8,0.2-1.1,0.5l-4.1,4.1c-0.3,0.3-0.5,0.7-0.5,1.1c0,0.4,0.2,0.8,0.5,1.1
		C62.6,16.1,63,16.3,63.4,16.3z"/>
	<path id="XMLID_4111_" class="st0" d="M64.5,40.3c-0.3-0.3-0.7-0.5-1.1-0.5c-0.4,0-0.8,0.2-1.1,0.5c-0.3,0.3-0.5,0.7-0.5,1.1
		c0,0.4,0.2,0.8,0.5,1.1l4.1,4.1c0.3,0.3,0.7,0.5,1.1,0.5c0.4,0,0.8-0.2,1.1-0.5c0.6-0.6,0.6-1.6,0-2.3L64.5,40.3z"/>
	<path id="XMLID_4110_" class="st0" d="M35.5,15.8c0.3,0.3,0.7,0.5,1.1,0.5c0.4,0,0.9-0.2,1.1-0.5c0.3-0.3,0.5-0.7,0.5-1.1
		c0-0.4-0.2-0.8-0.5-1.1l-4.1-4.1C33.4,9.2,33,9,32.5,9h0c-0.4,0-0.8,0.2-1.1,0.5c-0.6,0.6-0.6,1.6,0,2.3L35.5,15.8z"/>
</g>
</svg>
